<svg xmlns="http://www.w3.org/2000/svg" xmlns:xlink="http://www.w3.org/1999/xlink" version="1.1" width="256" height="256" viewBox="0 0 256 256" xml:space="preserve">

<defs>
</defs>
<g style="stroke: none; stroke-width: 0; stroke-dasharray: none; stroke-linecap: butt; stroke-linejoin: miter; stroke-miterlimit: 10; fill: none; fill-rule: nonzero; opacity: 1;" transform="translate(1.4065934065934016 1.4065934065934016) scale(2.81 2.81)" >
	<path d="M 9.476 29.434 c -0.034 -0.513 -0.058 -1.029 -0.058 -1.55 c 0 -12.714 10.307 -23.021 23.021 -23.021 c 9.198 0 17.133 5.396 20.82 13.193 c 2.777 -1.972 6.162 -3.142 9.827 -3.142 c 8.48 0 15.49 6.212 16.778 14.329 C 85.703 30.84 90 36.169 90 42.514 c 0 7.607 -6.167 13.774 -13.774 13.774 H 13.774 C 6.167 56.288 0 50.122 0 42.514 C 0 36.41 3.976 31.241 9.476 29.434 z" style="stroke: none; stroke-width: 1; stroke-dasharray: none; stroke-linecap: butt; stroke-linejoin: miter; stroke-miterlimit: 10; fill: rgb(98,195,247); fill-rule: nonzero; opacity: 1;" transform=" matrix(1 0 0 1 0 0) " stroke-linecap="round" />
	<path d="M 65.455 75.91 c -0.565 0 -1.023 -0.457 -1.023 -1.023 v -9.546 c 0 -0.565 0.457 -1.023 1.023 -1.023 c 0.565 0 1.023 0.457 1.023 1.023 v 9.546 C 66.477 75.453 66.02 75.91 65.455 75.91 z" style="stroke: none; stroke-width: 1; stroke-dasharray: none; stroke-linecap: butt; stroke-linejoin: miter; stroke-miterlimit: 10; fill: rgb(123,216,247); fill-rule: nonzero; opacity: 1;" transform=" matrix(1 0 0 1 0 0) " stroke-linecap="round" />
	<path d="M 55.227 86.137 c -0.565 0 -1.023 -0.457 -1.023 -1.023 v -9.546 c 0 -0.565 0.457 -1.023 1.023 -1.023 s 1.023 0.457 1.023 1.023 v 9.546 C 56.25 85.68 55.793 86.137 55.227 86.137 z" style="stroke: none; stroke-width: 1; stroke-dasharray: none; stroke-linecap: butt; stroke-linejoin: miter; stroke-miterlimit: 10; fill: rgb(123,216,247); fill-rule: nonzero; opacity: 1;" transform=" matrix(1 0 0 1 0 0) " stroke-linecap="round" />
	<path d="M 45 75.91 c -0.565 0 -1.023 -0.457 -1.023 -1.023 v -9.546 c 0 -0.565 0.458 -1.023 1.023 -1.023 s 1.023 0.457 1.023 1.023 v 9.546 C 46.023 75.453 45.565 75.91 45 75.91 z" style="stroke: none; stroke-width: 1; stroke-dasharray: none; stroke-linecap: butt; stroke-linejoin: miter; stroke-miterlimit: 10; fill: rgb(123,216,247); fill-rule: nonzero; opacity: 1;" transform=" matrix(1 0 0 1 0 0) " stroke-linecap="round" />
	<path d="M 34.773 86.137 c -0.565 0 -1.023 -0.457 -1.023 -1.023 v -9.546 c 0 -0.565 0.458 -1.023 1.023 -1.023 s 1.023 0.457 1.023 1.023 v 9.546 C 35.795 85.68 35.338 86.137 34.773 86.137 z" style="stroke: none; stroke-width: 1; stroke-dasharray: none; stroke-linecap: butt; stroke-linejoin: miter; stroke-miterlimit: 10; fill: rgb(123,216,247); fill-rule: nonzero; opacity: 1;" transform=" matrix(1 0 0 1 0 0) " stroke-linecap="round" />
	<path d="M 24.545 75.91 c -0.565 0 -1.023 -0.457 -1.023 -1.023 v -9.546 c 0 -0.565 0.458 -1.023 1.023 -1.023 c 0.565 0 1.023 0.457 1.023 1.023 v 9.546 C 25.568 75.453 25.11 75.91 24.545 75.91 z" style="stroke: none; stroke-width: 1; stroke-dasharray: none; stroke-linecap: butt; stroke-linejoin: miter; stroke-miterlimit: 10; fill: rgb(123,216,247); fill-rule: nonzero; opacity: 1;" transform=" matrix(1 0 0 1 0 0) " stroke-linecap="round" />
</g>
</svg>