<svg xmlns="http://www.w3.org/2000/svg" xmlns:xlink="http://www.w3.org/1999/xlink" version="1.1" width="256" height="256" viewBox="0 0 256 256" xml:space="preserve">

<defs>
</defs>
<g style="stroke: none; stroke-width: 0; stroke-dasharray: none; stroke-linecap: butt; stroke-linejoin: miter; stroke-miterlimit: 10; fill: none; fill-rule: nonzero; opacity: 1;" transform="translate(1.4065934065934016 1.4065934065934016) scale(2.81 2.81)" >
	<path d="M 9.476 24.649 c -0.034 -0.513 -0.058 -1.029 -0.058 -1.55 c 0 -12.714 10.307 -23.021 23.021 -23.021 c 9.198 0 17.133 5.396 20.82 13.193 c 2.777 -1.972 6.162 -3.142 9.827 -3.142 c 8.48 0 15.49 6.212 16.778 14.329 C 85.703 26.055 90 31.384 90 37.73 c 0 7.607 -6.167 13.774 -13.774 13.774 H 13.774 C 6.167 51.504 0 45.337 0 37.73 C 0 31.625 3.976 26.456 9.476 24.649 z" style="stroke: none; stroke-width: 1; stroke-dasharray: none; stroke-linecap: butt; stroke-linejoin: miter; stroke-miterlimit: 10; fill: rgb(98,195,247); fill-rule: nonzero; opacity: 1;" transform=" matrix(1 0 0 1 0 0) " stroke-linecap="round" />
	<path d="M 19.768 65.33 h 3.006 l -1.503 2.604 c -0.282 0.489 -0.114 1.115 0.375 1.397 c 0.161 0.093 0.337 0.137 0.51 0.137 c 0.354 0 0.697 -0.184 0.887 -0.511 l 1.503 -2.603 l 1.503 2.603 c 0.19 0.329 0.533 0.511 0.887 0.511 c 0.173 0 0.349 -0.044 0.51 -0.137 c 0.489 -0.283 0.657 -0.908 0.375 -1.397 l -1.503 -2.604 h 3.006 c 0.565 0 1.023 -0.457 1.023 -1.023 c 0 -0.565 -0.458 -1.023 -1.023 -1.023 h -3.005 l 1.503 -2.603 c 0.282 -0.489 0.114 -1.115 -0.375 -1.397 c -0.491 -0.284 -1.115 -0.114 -1.397 0.375 l -1.503 2.603 l -1.503 -2.603 c -0.283 -0.49 -0.908 -0.658 -1.397 -0.375 c -0.489 0.283 -0.657 0.908 -0.375 1.397 l 1.503 2.603 h -3.005 c -0.565 0 -1.023 0.457 -1.023 1.023 C 18.746 64.872 19.204 65.33 19.768 65.33 z" style="stroke: none; stroke-width: 1; stroke-dasharray: none; stroke-linecap: butt; stroke-linejoin: miter; stroke-miterlimit: 10; fill: rgb(123,216,247); fill-rule: nonzero; opacity: 1;" transform=" matrix(1 0 0 1 0 0) " stroke-linecap="round" />
	<path d="M 29.323 83.739 h -3.005 l 1.503 -2.603 c 0.282 -0.489 0.114 -1.115 -0.375 -1.397 c -0.491 -0.284 -1.115 -0.114 -1.397 0.375 l -1.503 2.603 l -1.503 -2.603 c -0.283 -0.49 -0.908 -0.658 -1.397 -0.375 c -0.489 0.283 -0.657 0.908 -0.375 1.397 l 1.503 2.603 h -3.005 c -0.565 0 -1.023 0.457 -1.023 1.023 c 0 0.565 0.458 1.023 1.023 1.023 h 3.006 l -1.503 2.604 c -0.282 0.489 -0.114 1.115 0.375 1.397 c 0.161 0.093 0.337 0.137 0.51 0.137 c 0.354 0 0.697 -0.184 0.887 -0.511 l 1.503 -2.603 l 1.503 2.603 c 0.19 0.329 0.533 0.511 0.887 0.511 c 0.173 0 0.349 -0.044 0.51 -0.137 c 0.489 -0.283 0.657 -0.908 0.375 -1.397 l -1.503 -2.604 h 3.006 c 0.565 0 1.023 -0.457 1.023 -1.023 C 30.345 84.196 29.887 83.739 29.323 83.739 z" style="stroke: none; stroke-width: 1; stroke-dasharray: none; stroke-linecap: butt; stroke-linejoin: miter; stroke-miterlimit: 10; fill: rgb(123,216,247); fill-rule: nonzero; opacity: 1;" transform=" matrix(1 0 0 1 0 0) " stroke-linecap="round" />
	<path d="M 36.544 75.557 h 3.006 c 0.565 0 1.023 -0.457 1.023 -1.023 c 0 -0.565 -0.458 -1.023 -1.023 -1.023 h -3.005 l 1.503 -2.603 c 0.282 -0.489 0.114 -1.115 -0.375 -1.397 c -0.491 -0.284 -1.115 -0.114 -1.397 0.375 l -1.503 2.603 l -1.503 -2.603 c -0.283 -0.49 -0.908 -0.658 -1.397 -0.375 c -0.489 0.283 -0.657 0.908 -0.375 1.397 l 1.503 2.603 h -3.005 c -0.565 0 -1.023 0.457 -1.023 1.023 c 0 0.565 0.458 1.023 1.023 1.023 h 3.006 l -1.503 2.604 c -0.282 0.489 -0.114 1.115 0.375 1.397 c 0.161 0.093 0.337 0.137 0.51 0.137 c 0.354 0 0.697 -0.184 0.887 -0.511 l 1.503 -2.603 l 1.503 2.603 c 0.19 0.329 0.533 0.511 0.887 0.511 c 0.173 0 0.349 -0.044 0.51 -0.137 c 0.489 -0.283 0.657 -0.908 0.375 -1.397 L 36.544 75.557 z" style="stroke: none; stroke-width: 1; stroke-dasharray: none; stroke-linecap: butt; stroke-linejoin: miter; stroke-miterlimit: 10; fill: rgb(123,216,247); fill-rule: nonzero; opacity: 1;" transform=" matrix(1 0 0 1 0 0) " stroke-linecap="round" />
	<path d="M 40.223 65.33 h 3.006 l -1.503 2.604 c -0.282 0.489 -0.115 1.115 0.375 1.397 c 0.161 0.093 0.337 0.137 0.51 0.137 c 0.354 0 0.697 -0.183 0.887 -0.511 L 45 66.353 l 1.503 2.603 c 0.19 0.329 0.533 0.511 0.887 0.511 c 0.174 0 0.35 -0.044 0.51 -0.137 c 0.489 -0.283 0.657 -0.908 0.375 -1.397 l -1.503 -2.604 h 3.005 c 0.565 0 1.023 -0.457 1.023 -1.023 c 0 -0.565 -0.457 -1.023 -1.023 -1.023 h -3.005 l 1.503 -2.603 c 0.283 -0.489 0.115 -1.115 -0.375 -1.397 c -0.488 -0.283 -1.115 -0.116 -1.397 0.375 L 45 62.262 l -1.503 -2.603 c -0.283 -0.49 -0.91 -0.658 -1.397 -0.375 c -0.489 0.283 -0.657 0.908 -0.375 1.397 l 1.503 2.603 h -3.005 c -0.565 0 -1.023 0.457 -1.023 1.023 C 39.2 64.872 39.658 65.33 40.223 65.33 z" style="stroke: none; stroke-width: 1; stroke-dasharray: none; stroke-linecap: butt; stroke-linejoin: miter; stroke-miterlimit: 10; fill: rgb(123,216,247); fill-rule: nonzero; opacity: 1;" transform=" matrix(1 0 0 1 0 0) " stroke-linecap="round" />
	<path d="M 49.777 83.739 h -3.005 l 1.503 -2.603 c 0.283 -0.489 0.115 -1.115 -0.375 -1.397 c -0.488 -0.283 -1.115 -0.116 -1.397 0.375 L 45 82.716 l -1.503 -2.603 c -0.283 -0.49 -0.91 -0.658 -1.397 -0.375 c -0.489 0.283 -0.657 0.908 -0.375 1.397 l 1.503 2.603 h -3.005 c -0.565 0 -1.023 0.457 -1.023 1.023 c 0 0.565 0.458 1.023 1.023 1.023 h 3.006 l -1.503 2.604 c -0.282 0.489 -0.115 1.115 0.375 1.397 c 0.161 0.093 0.337 0.137 0.51 0.137 c 0.354 0 0.697 -0.183 0.887 -0.511 L 45 86.808 l 1.503 2.603 c 0.19 0.329 0.533 0.511 0.887 0.511 c 0.174 0 0.35 -0.044 0.51 -0.137 c 0.489 -0.283 0.657 -0.908 0.375 -1.397 l -1.503 -2.604 h 3.005 c 0.565 0 1.023 -0.457 1.023 -1.023 C 50.8 84.196 50.342 83.739 49.777 83.739 z" style="stroke: none; stroke-width: 1; stroke-dasharray: none; stroke-linecap: butt; stroke-linejoin: miter; stroke-miterlimit: 10; fill: rgb(123,216,247); fill-rule: nonzero; opacity: 1;" transform=" matrix(1 0 0 1 0 0) " stroke-linecap="round" />
	<path d="M 56.999 75.557 h 3.006 c 0.565 0 1.023 -0.457 1.023 -1.023 c 0 -0.565 -0.457 -1.023 -1.023 -1.023 h -3.005 l 1.503 -2.603 c 0.283 -0.489 0.115 -1.115 -0.375 -1.397 c -0.489 -0.283 -1.115 -0.116 -1.397 0.375 l -1.503 2.603 l -1.503 -2.603 c -0.284 -0.49 -0.91 -0.657 -1.397 -0.375 c -0.489 0.283 -0.657 0.908 -0.375 1.397 l 1.503 2.603 H 50.45 c -0.565 0 -1.023 0.457 -1.023 1.023 c 0 0.565 0.457 1.023 1.023 1.023 h 3.006 l -1.504 2.604 c -0.283 0.489 -0.115 1.115 0.375 1.397 c 0.161 0.093 0.337 0.137 0.51 0.137 c 0.354 0 0.697 -0.183 0.887 -0.511 l 1.503 -2.603 l 1.503 2.603 c 0.19 0.329 0.533 0.511 0.887 0.511 c 0.174 0 0.35 -0.044 0.51 -0.137 c 0.489 -0.283 0.657 -0.908 0.375 -1.397 L 56.999 75.557 z" style="stroke: none; stroke-width: 1; stroke-dasharray: none; stroke-linecap: butt; stroke-linejoin: miter; stroke-miterlimit: 10; fill: rgb(123,216,247); fill-rule: nonzero; opacity: 1;" transform=" matrix(1 0 0 1 0 0) " stroke-linecap="round" />
	<path d="M 60.677 65.33 h 3.006 l -1.504 2.604 c -0.283 0.489 -0.115 1.115 0.375 1.397 c 0.161 0.093 0.337 0.137 0.51 0.137 c 0.354 0 0.697 -0.183 0.887 -0.511 l 1.503 -2.603 l 1.503 2.603 c 0.19 0.329 0.533 0.511 0.887 0.511 c 0.174 0 0.35 -0.044 0.51 -0.137 c 0.489 -0.283 0.657 -0.908 0.375 -1.397 l -1.504 -2.604 h 3.006 c 0.565 0 1.023 -0.457 1.023 -1.023 c 0 -0.565 -0.457 -1.023 -1.023 -1.023 h -3.005 l 1.503 -2.603 c 0.283 -0.489 0.115 -1.115 -0.375 -1.397 c -0.489 -0.283 -1.114 -0.116 -1.397 0.375 l -1.503 2.603 l -1.503 -2.603 c -0.284 -0.49 -0.911 -0.657 -1.397 -0.375 c -0.489 0.283 -0.657 0.908 -0.375 1.397 l 1.503 2.603 h -3.005 c -0.565 0 -1.023 0.457 -1.023 1.023 C 59.655 64.872 60.112 65.33 60.677 65.33 z" style="stroke: none; stroke-width: 1; stroke-dasharray: none; stroke-linecap: butt; stroke-linejoin: miter; stroke-miterlimit: 10; fill: rgb(123,216,247); fill-rule: nonzero; opacity: 1;" transform=" matrix(1 0 0 1 0 0) " stroke-linecap="round" />
	<path d="M 70.232 83.739 h -3.005 l 1.503 -2.603 c 0.283 -0.489 0.115 -1.115 -0.375 -1.397 c -0.489 -0.283 -1.114 -0.116 -1.397 0.375 l -1.503 2.603 l -1.503 -2.603 c -0.284 -0.49 -0.911 -0.657 -1.397 -0.375 c -0.489 0.283 -0.657 0.908 -0.375 1.397 l 1.503 2.603 h -3.005 c -0.565 0 -1.023 0.457 -1.023 1.023 c 0 0.565 0.457 1.023 1.023 1.023 h 3.006 l -1.504 2.604 c -0.283 0.489 -0.115 1.115 0.375 1.397 c 0.161 0.093 0.337 0.137 0.51 0.137 c 0.354 0 0.697 -0.183 0.887 -0.511 l 1.503 -2.603 l 1.503 2.603 c 0.19 0.329 0.533 0.511 0.887 0.511 c 0.174 0 0.35 -0.044 0.51 -0.137 c 0.489 -0.283 0.657 -0.908 0.375 -1.397 l -1.504 -2.604 h 3.006 c 0.565 0 1.023 -0.457 1.023 -1.023 C 71.254 84.196 70.797 83.739 70.232 83.739 z" style="stroke: none; stroke-width: 1; stroke-dasharray: none; stroke-linecap: butt; stroke-linejoin: miter; stroke-miterlimit: 10; fill: rgb(123,216,247); fill-rule: nonzero; opacity: 1;" transform=" matrix(1 0 0 1 0 0) " stroke-linecap="round" />
</g>
</svg>